<svg id="bord-bia-logo-green" xmlns="http://www.w3.org/2000/svg" width="156.308" height="46.453" viewBox="0 0 156.308 46.453">
  <path id="Path_11048" data-name="Path 11048" d="M20.716,17.528c0,6.09-5.874,6.953-11.305,6.953a44.075,44.075,0,0,1-6.845-.5V4.457c-.792.123-1.552.251-2.309.4C-.192,3.654-.079,1.4.811.67A49.689,49.689,0,0,1,9.029,0c5.907,0,10.51,1.553,10.51,6.424A5.161,5.161,0,0,1,15.448,11.9C18.793,12.3,20.716,14.05,20.716,17.528ZM5.494,4.148c1.2.035,2.116,1.059,2.116,3.443v2.718H9.6c3.6,0,4.957-.918,4.957-3.282,0-2.208-1.923-3.011-5.822-3.011C7.663,4.025,6.577,4.06,5.494,4.148Zm4.877,9.99c3.272,0,5.265.354,5.265,3.089,0,2.7-1.958,3.46-5.2,3.46a18.4,18.4,0,0,1-2.823-.211v-6.3C8.538,14.155,9.666,14.138,10.371,14.138Z" transform="translate(0 0)" fill="#1c4a4c" fill-rule="evenodd"/>
  <path id="Path_11049" data-name="Path 11049" d="M39.083,0C33.332,0,27.775,3.342,27.775,12.55s5.572,12.56,11.308,12.56,11.291-3.326,11.291-12.547S44.834,0,39.083,0Zm0,4.226c4.5,0,5.877,3.623,5.877,8.324s-1.366,8.324-5.877,8.324-5.892-3.623-5.892-8.324S34.588,4.226,39.083,4.226Z" transform="translate(-3.921 0)" fill="#1c4a4c" fill-rule="evenodd"/>
  <path id="Path_11050" data-name="Path 11050" d="M74.24,24.476c1.153,0,2.458-.281,2.757-.741-1.814-3.2-3.366-5.988-5-9.146,2.551-1.29,4.055-3.5,4.055-7.03C76.054,1.908,71.261,0,64.58,0a40.615,40.615,0,0,0-7.493.67c-.88.726-1,2.985-.546,4.2l.485-.085c.616-.109,1.23-.218,1.825-.3V24.158a8.05,8.05,0,0,0,2.521.316,8.556,8.556,0,0,0,2.521-.316v-8a33.459,33.459,0,0,0,3.666-.281,78.668,78.668,0,0,0,4.055,8.285A8.5,8.5,0,0,0,74.24,24.476ZM63.883,12.345V7.294c0-2.049-.847-3.02-1.9-3.161.9-.07,1.762-.105,2.591-.105,4.195,0,6.646.723,6.646,3.831C71.215,11.341,69.03,12.169,63.883,12.345Z" transform="translate(-7.945 0)" fill="#1c4a4c" fill-rule="evenodd"/>
  <path id="Path_11051" data-name="Path 11051" d="M91.849,24.482c8.42,0,13.343-4.12,13.343-12.9C105.193,3.139,99.688,0,91.383,0a52.861,52.861,0,0,0-7.977.652c-.893.742-1,3-.555,4.388.612-.1,1.216-.182,1.8-.264l.512-.072V24.01A45.284,45.284,0,0,0,91.849,24.482Zm-.3-20.214c5.6,0,8.667,1.675,8.667,7.725,0,5.626-2.349,8.608-7.643,8.608a14.559,14.559,0,0,1-2.366-.176V7.284c0-1.587-.512-2.522-1.234-2.929C89.892,4.3,90.738,4.267,91.551,4.267Z" transform="translate(-11.659 0)" fill="#1c4a4c" fill-rule="evenodd"/>
  <path id="Path_11052" data-name="Path 11052" d="M163.843.454A7.669,7.669,0,0,0,160.971,0a8.268,8.268,0,0,0-2.945.454c.5.825.958,1.685,1.4,2.56-1.064.456-2.183,1.789-3.353,4.985-1.72,4.593-3.459,9.837-5.043,15.744.337.5,1.969.683,3.1.683a4.951,4.951,0,0,0,1.863-.3c.356-1.5.727-2.928,1.1-4.366h9.542c.443,1.438.887,2.894,1.313,4.366a4.958,4.958,0,0,0,1.864.3c1.135,0,2.773-.174,3.1-.683C170.467,15.759,167.2,6.555,163.833.454ZM137.325,6.537c0,2.719-1.17,4.541-4.115,5.436,3.359.4,5.295,2.138,5.305,5.6,0,6.049-5.908,6.906-11.369,6.906a44.881,44.881,0,0,1-6.884-.5V4.593c-.8.122-1.566.244-2.321.4-.459-1.209-.338-3.452.55-4.172a50.572,50.572,0,0,1,8.265-.665C132.7.157,137.325,1.7,137.325,6.537ZM126.471,4.155c-1.082,0-2.181.035-3.264.122H123.2c1.2.035,2.128,1.054,2.14,3.419v2.709h2c3.618,0,4.986-.912,4.986-3.26C132.326,4.942,130.392,4.155,126.471,4.155Zm1.7,16.549a18.727,18.727,0,0,1-2.838-.209V14.233c.94-.017,2.075-.035,2.773-.035,3.278,0,5.295.351,5.295,3.068S131.426,20.7,128.167,20.7Zm14.244,3.437V.648h-.005a11.327,11.327,0,0,1,5.318,0V24.14a11.391,11.391,0,0,1-5.313,0ZM161.556,6.228c-1.3,3.312-2.4,6.485-3.354,9.677h7.166A101.344,101.344,0,0,0,161.556,6.228Z" transform="translate(-16.612 0)" fill="#1c4a4c" fill-rule="evenodd"/>
  <path id="Path_11053" data-name="Path 11053" d="M2.924,51.249V39.62a2.456,2.456,0,0,1,.935-.148,2.513,2.513,0,0,1,.948.148V51.249a2.517,2.517,0,0,1-.948.146A2.471,2.471,0,0,1,2.924,51.249Z" transform="translate(-0.413 -5.572)" fill="#1c4a4c"/>
  <path id="Path_11054" data-name="Path 11054" d="M17.064,42.9a3.358,3.358,0,0,1-2.3,3.4c.884,1.661,1.742,3.147,2.793,4.833a1.721,1.721,0,0,1-1.093.266,3.619,3.619,0,0,1-1.043-.111,45.908,45.908,0,0,1-2.381-4.572,11.919,11.919,0,0,1-1.565.091c-.263,0-.548-.007-.829-.025v4.464a2.606,2.606,0,0,1-.939.145,2.575,2.575,0,0,1-.939-.145V39.677a22.79,22.79,0,0,1,3.163-.207C15.1,39.47,17.064,40.339,17.064,42.9Zm-6.418,2.485c.31.025.605.025.866.025,2.644,0,3.721-.731,3.719-2.365,0-1.427-.8-2.1-3.1-2.1a10.61,10.61,0,0,0-1.486.086Z" transform="translate(-1.238 -5.572)" fill="#1c4a4c" fill-rule="evenodd"/>
  <path id="Path_11055" data-name="Path 11055" d="M164.7,42.9a3.359,3.359,0,0,1-2.294,3.4c.884,1.661,1.739,3.147,2.8,4.833a1.723,1.723,0,0,1-1.095.266,3.616,3.616,0,0,1-1.043-.111,45.236,45.236,0,0,1-2.369-4.572,11.949,11.949,0,0,1-1.579.091c-.264,0-.545-.007-.829-.025v4.464a3.1,3.1,0,0,1-1.874,0V39.677a22.722,22.722,0,0,1,3.159-.207C162.738,39.47,164.7,40.339,164.7,42.9Zm-6.409,2.485c.31.025.6.025.865.025,2.64,0,3.714-.731,3.717-2.365,0-1.427-.8-2.1-3.1-2.1a10.618,10.618,0,0,0-1.485.086Z" transform="translate(-22.08 -5.572)" fill="#1c4a4c" fill-rule="evenodd"/>
  <path id="Path_11056" data-name="Path 11056" d="M21.2,51.251V39.618a3.059,3.059,0,0,1,1.883,0V51.251a3.109,3.109,0,0,1-1.883,0Z" transform="translate(-2.992 -5.572)" fill="#1c4a4c"/>
  <path id="Path_11057" data-name="Path 11057" d="M27.047,51.043a2.116,2.116,0,0,1,.539-1.529,5.6,5.6,0,0,0,3.018.978c1.42,0,2.2-.6,2.2-1.807,0-.978-.632-1.529-2.223-2.181l-.438-.178c-1.838-.764-2.994-1.628-2.994-3.544,0-2.038,1.327-3.312,3.944-3.312a6.747,6.747,0,0,1,3.072.711,2.3,2.3,0,0,1-.411,1.649,5.053,5.053,0,0,0-2.737-.8c-1.437,0-2.1.571-2.1,1.567,0,1.1.813,1.6,2.1,2.128l.556.232c1.873.792,3,1.621,3,3.6,0,2.191-1.393,3.473-3.985,3.473A6.573,6.573,0,0,1,27.047,51.043Z" transform="translate(-3.818 -5.572)" fill="#1c4a4c"/>
  <path id="Path_11058" data-name="Path 11058" d="M47.527,39.618V51.242a2.877,2.877,0,0,1-1.809,0V46.011h-5.17v5.238a2.877,2.877,0,0,1-1.809,0V39.626a2.831,2.831,0,0,1,1.809,0v4.889h5.167v-4.9a2.832,2.832,0,0,1,1.809,0Z" transform="translate(-5.469 -5.572)" fill="#1c4a4c"/>
  <path id="Path_11059" data-name="Path 11059" d="M58.926,41V44.81h4.449a2.031,2.031,0,0,1,.116.749,2.137,2.137,0,0,1-.116.771H58.926v4.933a2.728,2.728,0,0,1-.957.132,2.791,2.791,0,0,1-.957-.132V39.47h6.776a2.342,2.342,0,0,1,0,1.52Z" transform="translate(-8.048 -5.572)" fill="#1c4a4c"/>
  <path id="Path_11060" data-name="Path 11060" d="M72.586,39.47c-3.2,0-5.341,2.217-5.341,6.276s2.151,6.279,5.341,6.279,5.331-2.219,5.331-6.279S75.785,39.47,72.586,39.47Zm0,1.539c2.2,0,3.431,1.679,3.431,4.737s-1.216,4.737-3.431,4.737-3.446-1.674-3.446-4.737S70.385,41.009,72.586,41.009Z" transform="translate(-9.493 -5.572)" fill="#1c4a4c" fill-rule="evenodd"/>
  <path id="Path_11061" data-name="Path 11061" d="M87.2,39.47c-3.194,0-5.333,2.217-5.333,6.276s2.154,6.279,5.343,6.279,5.328-2.222,5.328-6.279S90.391,39.47,87.2,39.47Zm0,1.539c2.2,0,3.43,1.679,3.43,4.737s-1.217,4.737-3.43,4.737-3.442-1.674-3.442-4.737S85,41.009,87.2,41.009Z" transform="translate(-11.556 -5.572)" fill="#1c4a4c" fill-rule="evenodd"/>
  <path id="Path_11062" data-name="Path 11062" d="M100.434,51.4c4.168,0,6.195-2.144,6.195-6.31,0-4.024-1.982-5.617-6.021-5.617a24.351,24.351,0,0,0-3.4.223V51.167A21.415,21.415,0,0,0,100.434,51.4Zm.146-10.42c3.077,0,4.213,1.01,4.213,4.22h.009c0,3.117-1.17,4.727-4.133,4.727a9.453,9.453,0,0,1-1.655-.12V41.08A11.424,11.424,0,0,1,100.58,40.977Z" transform="translate(-13.723 -5.572)" fill="#1c4a4c" fill-rule="evenodd"/>
  <path id="Path_11063" data-name="Path 11063" d="M124.378,47.963c0,2.958-2.642,3.434-5.077,3.434a18.876,18.876,0,0,1-3.084-.245V39.669a21.962,21.962,0,0,1,3.039-.2c3.258,0,4.674,1.116,4.674,3.078a2.549,2.549,0,0,1-1.945,2.7A2.454,2.454,0,0,1,124.378,47.963Zm-6.4-6.985v3.679h.951c1.76,0,3.228-.2,3.228-2.006,0-1.319-1.165-1.756-2.719-1.756A13.18,13.18,0,0,0,117.979,40.979Zm1.589,5.116c1.865,0,3.033.3,3.033,1.869,0,1.587-1.132,2.023-3.005,2.026a11.259,11.259,0,0,1-1.616-.12V46.095Z" transform="translate(-16.406 -5.572)" fill="#1c4a4c" fill-rule="evenodd"/>
  <path id="Path_11064" data-name="Path 11064" d="M133.252,39.47c-3.2,0-5.34,2.217-5.34,6.276s2.136,6.279,5.335,6.279,5.336-2.219,5.336-6.279S136.452,39.47,133.252,39.47Zm0,1.539c2.2,0,3.431,1.679,3.431,4.737h.01c0,3.063-1.226,4.737-3.441,4.737s-3.446-1.674-3.446-4.737S131.052,41.009,133.252,41.009Z" transform="translate(-18.057 -5.572)" fill="#1c4a4c" fill-rule="evenodd"/>
  <path id="Path_11065" data-name="Path 11065" d="M151.291,51.4c.43,0,1.055-.067,1.18-.248A80.327,80.327,0,0,0,148.3,39.61a4.805,4.805,0,0,0-2.3,0,78.413,78.413,0,0,0-4.2,11.538c.136.178.761.248,1.19.248a1.8,1.8,0,0,0,.717-.121l.039-.137c.228-.795.451-1.578.693-2.338h5.394c.251.807.5,1.629.742,2.475A1.8,1.8,0,0,0,151.291,51.4Zm-4.152-10.32c.813,2.136,1.549,4.161,2.23,6.256l-4.457-.01C145.6,45.227,146.325,43.195,147.139,41.076Z" transform="translate(-20.017 -5.572)" fill="#1c4a4c" fill-rule="evenodd"/>
  <path id="Path_11066" data-name="Path 11066" d="M172.065,51.4c4.168,0,6.195-2.144,6.195-6.31,0-4.024-1.982-5.617-6.021-5.617a24.336,24.336,0,0,0-3.394.223V51.167A21.4,21.4,0,0,0,172.065,51.4Zm.147-10.42c3.077,0,4.212,1.01,4.212,4.22,0,3.117-1.169,4.727-4.123,4.727a9.454,9.454,0,0,1-1.655-.12V41.08A11.428,11.428,0,0,1,172.212,40.977Z" transform="translate(-23.835 -5.572)" fill="#1c4a4c" fill-rule="evenodd"/>
</svg>
