<svg xmlns="http://www.w3.org/2000/svg" width="155.352" height="28.433" viewBox="0 0 155.352 28.433">
  <g id="Group_21137" data-name="Group 21137" transform="translate(0)">
    <g id="Group_21138" data-name="Group 21138" transform="translate(0 0)">
      <path id="Path_5625" data-name="Path 5625" d="M128.576,32.849a12.391,12.391,0,0,0-4.9.97l-.27.116.125.256c.015.038.085.227.369,1.009.238.656.364,1,.374,1.032l.093.276.272-.1a10.828,10.828,0,0,1,3.679-.838,1.939,1.939,0,0,1,1.4.438,2.013,2.013,0,0,1,.442,1.462v.411c-.158.016-.344.034-.556.052-.342.031-.655.062-.931.092s-.532.061-.761.091a8.114,8.114,0,0,0-4,1.246,3.635,3.635,0,0,0-1.392,3.119,3.816,3.816,0,0,0,1.172,2.988A4.366,4.366,0,0,0,126.7,46.5,5.31,5.31,0,0,0,129,46.045a6.831,6.831,0,0,0,1.573-1.082c.031.094.068.206.113.342.212.636.242.734.245.745l.053.211H133.7V37.8a5.035,5.035,0,0,0-1.239-3.769,5.485,5.485,0,0,0-3.88-1.179m1.57,7.429v2.055a2.672,2.672,0,0,1-.973,1.033,3,3,0,0,1-1.658.452,1.654,1.654,0,0,1-1.147-.355,1.3,1.3,0,0,1-.377-1.021,1.566,1.566,0,0,1,.713-1.452,6.025,6.025,0,0,1,2.527-.643c.035,0,.141-.008.618-.046l.3-.024" transform="translate(-87.915 -23.571)" fill="#383435"/>
      <path id="Path_5626" data-name="Path 5626" d="M173.875,38.232c-.093-.039-.222-.088-.394-.151-.2-.071-.27-.1-.306-.106a10.4,10.4,0,0,1-1.849-.817.751.751,0,0,1-.366-.674.722.722,0,0,1,.371-.679,2.513,2.513,0,0,1,1.267-.263,7.864,7.864,0,0,1,3.3.807l.277.129.93-2.588-.223-.11a9.669,9.669,0,0,0-4.336-.931,6.012,6.012,0,0,0-3.619.968,3.342,3.342,0,0,0-1.352,2.85,3.457,3.457,0,0,0,.839,2.433,6.992,6.992,0,0,0,2.6,1.572c.1.038.318.119.651.24a9.542,9.542,0,0,1,1.916.9.927.927,0,0,1,.4.8.982.982,0,0,1-.441.863,2.508,2.508,0,0,1-1.391.324,7.715,7.715,0,0,1-2.048-.315,9.02,9.02,0,0,1-1.859-.713l-.356-.194-.389,2.837.165.093a9.273,9.273,0,0,0,4.578.984,5.866,5.866,0,0,0,3.772-1.09,3.847,3.847,0,0,0,1.382-3.128,3.5,3.5,0,0,0-.885-2.467,6.713,6.713,0,0,0-2.637-1.571" transform="translate(-120.191 -23.57)" fill="#383435"/>
      <path id="Path_5627" data-name="Path 5627" d="M217.23,33.718h0a4.764,4.764,0,0,0-2.876-.91,5.081,5.081,0,0,0-2.408.575,4.5,4.5,0,0,0-1.349,1.088l-.244-1.343h-3.081V51.462l3.55-.176v-5c0-.072-.006-.273-.05-1.1a5.014,5.014,0,0,0,3.446,1.292,4.85,4.85,0,0,0,4.04-1.941,7.863,7.863,0,0,0,1.468-4.913,9.067,9.067,0,0,0-.626-3.445,5.606,5.606,0,0,0-1.869-2.454m-1.055,5.876a5.366,5.366,0,0,1-.721,3.038,2.144,2.144,0,0,1-1.876,1,2.338,2.338,0,0,1-2.06-.972A5.773,5.773,0,0,1,210.8,39.4c.021-2.533.912-3.764,2.723-3.764a2.239,2.239,0,0,1,1.932.947,5.127,5.127,0,0,1,.722,3.008" transform="translate(-148.728 -23.541)" fill="#383435"/>
      <path id="Path_5628" data-name="Path 5628" d="M260.465,32.849h0a5.842,5.842,0,0,0-4.533,1.873,7.163,7.163,0,0,0-1.658,4.946,6.926,6.926,0,0,0,1.762,5.006,6.539,6.539,0,0,0,4.91,1.826,8.675,8.675,0,0,0,4.633-1.206l.165-.1-.536-2.693-.336.191a7.664,7.664,0,0,1-3.812,1.037,3.033,3.033,0,0,1-2.326-.878,3.534,3.534,0,0,1-.874-2.25h8.33V40.32q0-.2.006-.636t.006-.632a6.558,6.558,0,0,0-1.5-4.488,5.377,5.377,0,0,0-4.233-1.715m2.351,5.308h-4.885a3.168,3.168,0,0,1,.8-1.9,2.347,2.347,0,0,1,1.748-.717,2.109,2.109,0,0,1,1.716.723,3.09,3.09,0,0,1,.624,1.891" transform="translate(-182.454 -23.571)" fill="#383435"/>
      <path id="Path_5629" data-name="Path 5629" d="M312.248,34.206h0a4.385,4.385,0,0,0-3.493-1.358,6.081,6.081,0,0,0-4.085,1.632l-.276-1.324h-2.915v13.1h3.549V39.874a12.643,12.643,0,0,1,.2-2.644,2.761,2.761,0,0,1,1.052-1.107,3.056,3.056,0,0,1,1.628-.455,1.613,1.613,0,0,1,1.488.624,4.122,4.122,0,0,1,.447,2.121V46.26h3.561V38.047a5.731,5.731,0,0,0-1.158-3.841" transform="translate(-216.326 -23.57)" fill="#383435"/>
      <path id="Path_5630" data-name="Path 5630" d="M351.792,53.63l-.171-1.724h2.329a9.115,9.115,0,0,0,1.689-.137,3.3,3.3,0,0,0,1.2-.451,3.165,3.165,0,0,0,.776-.7,2.673,2.673,0,0,0,.451-.993,7.59,7.59,0,0,0,.205-1.21q.052-.6.051-1.467V45.845a5.1,5.1,0,0,1-1.587,1.512,4.471,4.471,0,0,1-2.294.531,5.182,5.182,0,0,1-1.981-.371,4.632,4.632,0,0,1-1.529-.987,6.054,6.054,0,0,1-1.062-1.427,6.627,6.627,0,0,1-.639-1.678,7.749,7.749,0,0,1-.2-1.746,9.09,9.09,0,0,1,.337-2.534,6.651,6.651,0,0,1,1-2.077,4.537,4.537,0,0,1,1.741-1.433,5.629,5.629,0,0,1,2.471-.519,4.64,4.64,0,0,1,2.152.474,4.844,4.844,0,0,1,1.649,1.455V35.378h1.861V47q0,.8-.04,1.4a9.606,9.606,0,0,1-.194,1.33,5.226,5.226,0,0,1-.417,1.256,4.892,4.892,0,0,1-.736,1.056,3.7,3.7,0,0,1-1.13.856,6.915,6.915,0,0,1-1.626.531,10.627,10.627,0,0,1-2.192.206Zm2.934-7.363a3.971,3.971,0,0,0,1.7-.342,2.76,2.76,0,0,0,1.141-.948,4.425,4.425,0,0,0,.611-1.347,6.229,6.229,0,0,0,.2-1.621v-.925a6.523,6.523,0,0,0-.205-1.684,4.33,4.33,0,0,0-.634-1.381,2.893,2.893,0,0,0-1.141-.953,3.8,3.8,0,0,0-1.661-.343,3.386,3.386,0,0,0-1.432.3,3.061,3.061,0,0,0-1.062.782,4.663,4.663,0,0,0-.708,1.13,5.81,5.81,0,0,0-.417,1.307,7.165,7.165,0,0,0-.125,1.335,6.363,6.363,0,0,0,.137,1.313,5.55,5.55,0,0,0,.434,1.267,4.459,4.459,0,0,0,.719,1.079,3.169,3.169,0,0,0,1.056.748,3.34,3.34,0,0,0,1.387.285" transform="translate(-250.447 -25.197)" fill="#383435"/>
      <path id="Path_5631" data-name="Path 5631" d="M401.656,35.64a5.861,5.861,0,0,1,.936.069l-.068,1.758a5.447,5.447,0,0,0-.913-.091,3.326,3.326,0,0,0-2.6,1.113,3.976,3.976,0,0,0-1,2.757v7.032h-1.906q-.011-11.529-.011-12.522h1.587L397.866,38a5.315,5.315,0,0,1,1.655-1.712,3.858,3.858,0,0,1,2.134-.651" transform="translate(-284.22 -25.574)" fill="#383435"/>
      <path id="Path_5632" data-name="Path 5632" d="M431.523,41.633a6.994,6.994,0,0,1-1.552,4.72,5.354,5.354,0,0,1-4.292,1.809,5.231,5.231,0,0,1-4.195-1.826,6.974,6.974,0,0,1-1.558-4.691,6.956,6.956,0,0,1,1.564-4.726,5.383,5.383,0,0,1,4.292-1.8,5.221,5.221,0,0,1,4.212,1.809,7.045,7.045,0,0,1,1.529,4.709m-9.622.034a5.879,5.879,0,0,0,.987,3.567,3.355,3.355,0,0,0,2.882,1.341A3.246,3.246,0,0,0,428.6,45.24a6.074,6.074,0,0,0,.953-3.6,6.115,6.115,0,0,0-.942-3.613,3.74,3.74,0,0,0-5.724.029,5.994,5.994,0,0,0-.982,3.607" transform="translate(-301.319 -25.197)" fill="#383435"/>
      <path id="Path_5633" data-name="Path 5633" d="M465.5,48.567l-4.851-12.522h2.043l2.762,7.442L466.6,46.66q.388-1.221,1.073-3.15.867-2.431,2.694-7.465h2.032l-4.817,12.522Z" transform="translate(-330.54 -25.864)" fill="#383435"/>
      <path id="Path_5634" data-name="Path 5634" d="M507.926,48.162a5.5,5.5,0,0,1-4.3-1.735,6.815,6.815,0,0,1-1.57-4.748,7.1,7.1,0,0,1,1.518-4.72,5.059,5.059,0,0,1,4-1.844,4.61,4.61,0,0,1,3.692,1.592,6.312,6.312,0,0,1,1.364,4.252q0,.137-.006.5t-.006.525h-8.6a4.94,4.94,0,0,0,1.1,3.327,3.66,3.66,0,0,0,2.871,1.193,8.5,8.5,0,0,0,3.984-1.05l.3,1.541a8.176,8.176,0,0,1-4.349,1.164m1.923-10.473a2.844,2.844,0,0,0-2.3-1,3.054,3.054,0,0,0-2.385,1.033,4.744,4.744,0,0,0-1.085,2.825h6.609a4.331,4.331,0,0,0-.839-2.859" transform="translate(-360.254 -25.197)" fill="#383435"/>
      <path id="Path_5635" data-name="Path 5635" d="M542.9,31.767a1.4,1.4,0,1,1-1.4-1.365,1.371,1.371,0,0,1,1.4,1.365m-2.455,0a1.057,1.057,0,0,0,1.065,1.09,1.045,1.045,0,0,0,1.04-1.081,1.053,1.053,0,1,0-2.105-.008m.84.716h-.316V31.117a2.775,2.775,0,0,1,.524-.042.848.848,0,0,1,.474.1.378.378,0,0,1,.133.3.35.35,0,0,1-.283.316v.017a.4.4,0,0,1,.25.333,1.042,1.042,0,0,0,.1.341h-.341a1.178,1.178,0,0,1-.108-.333c-.025-.15-.108-.216-.283-.216h-.15Zm.008-.774h.15c.175,0,.316-.058.316-.2,0-.125-.091-.208-.291-.208a.769.769,0,0,0-.175.016Z" transform="translate(-387.545 -21.815)" fill="#383435"/>
      <path id="Path_5636" data-name="Path 5636" d="M55.368,3.146A40.829,40.829,0,0,0,52.172,0l.422,19.971,9.234-4.551.325.632-9.533,5.126.114,5.409c.017.8.014,1.449.014,1.449h5.673a8.505,8.505,0,0,0,6.029-2.5c5.74-5.74-4.225-17.3-9.081-22.391" transform="translate(-37.436 0)" fill="#ef662f"/>
      <path id="Path_5637" data-name="Path 5637" d="M13.481,24.2l-9.47-5.092.325-.631L13.507,23l.214-10.117-4.6-2.473.325-.631,4.293,2.116L13.992,0a40.881,40.881,0,0,0-3.2,3.146C5.94,8.237-3.984,19.839,1.715,25.538a8.5,8.5,0,0,0,6.029,2.5h5.674s0-.644.014-1.449Z" transform="translate(0 -0.001)" fill="#f79e31"/>
    </g>
  </g>
</svg>
